<?xml version="1.0" standalone="no"?>
<!DOCTYPE svg PUBLIC "-//W3C//DTD SVG 20010904//EN"
 "http://www.w3.org/TR/2001/REC-SVG-20010904/DTD/svg10.dtd">
<svg version="1.0" xmlns="http://www.w3.org/2000/svg"
 width="3879.000000pt" height="3737.000000pt" viewBox="0 0 3879.000000 3737.000000"
 preserveAspectRatio="xMidYMid meet">

<g transform="translate(0.000000,3737.000000) scale(0.100000,-0.100000)"
fill="#000000" stroke="none">
<path d="M12370 33749 c-74 -35 -286 -138 -470 -231 -2695 -1349 -4939 -3380
-6545 -5922 -1382 -2188 -2246 -4770 -2464 -7366 -49 -574 -55 -742 -56 -1375
0 -599 7 -794 41 -1235 218 -2837 1144 -5516 2724 -7888 1100 -1652 2470
-3068 4095 -4233 2289 -1642 5029 -2679 7855 -2973 643 -67 931 -81 1695 -81
661 0 788 4 1260 41 2356 181 4650 873 6710 2022 2160 1205 3979 2830 5401
4827 1087 1526 1909 3249 2420 5070 564 2010 741 4038 533 6095 -181 1795
-652 3524 -1414 5195 -116 254 -407 827 -555 1093 -999 1799 -2275 3346 -3832
4649 -654 547 -1345 1039 -2083 1482 -397 239 -680 393 -1145 624 l-405 202
-1135 6 c-624 4 -1562 9 -2085 12 l-950 4 95 -19 c1437 -285 2664 -696 3905
-1308 1284 -633 2452 -1436 3535 -2429 196 -180 741 -728 921 -927 1087 -1198
1934 -2481 2606 -3944 820 -1786 1291 -3757 1364 -5705 13 -342 7 -1158 -11
-1420 -31 -478 -73 -907 -126 -1274 -509 -3576 -2247 -6820 -4931 -9204 -3295
-2925 -7694 -4287 -12023 -3721 -2761 360 -5363 1465 -7515 3189 -658 528
-1364 1202 -1915 1830 -2074 2361 -3376 5326 -3704 8435 -195 1846 -51 3692
428 5484 944 3533 3092 6558 6126 8628 852 581 1881 1130 2851 1522 724 292
1460 527 2199 701 196 47 762 165 850 177 79 12 -554 18 -2230 24 l-1885 5
-135 -62z"/>
<path d="M25350 25344 c-727 -51 -1368 -196 -2030 -461 l-165 -66 -1220 -1749
c-671 -963 -1221 -1756 -1223 -1763 -2 -7 111 -171 250 -364 139 -193 359
-498 488 -678 129 -180 247 -344 263 -365 l27 -38 197 252 c953 1225 1333
1617 1884 1948 445 267 894 424 1454 507 174 26 742 26 935 0 553 -74 1041
-246 1503 -531 881 -543 1503 -1436 1706 -2451 57 -282 65 -379 65 -735 0
-356 -8 -454 -65 -735 -174 -869 -644 -1639 -1340 -2194 -530 -424 -1167 -693
-1859 -787 -187 -25 -641 -30 -837 -10 -719 76 -1372 335 -1921 764 -410 319
-879 854 -1777 2027 -92 121 -171 222 -175 225 -11 7 -339 456 -790 1080 -957
1324 -1251 1726 -1584 2160 -1432 1873 -2215 2632 -3346 3240 -147 80 -316
160 -334 160 -6 0 -621 -378 -1366 -838 l-1355 -838 -95 24 c-755 191 -1580
200 -2390 26 -579 -124 -1199 -355 -1670 -622 -549 -311 -1060 -757 -1445
-1263 -450 -591 -745 -1254 -860 -1933 -14 -81 -25 -162 -26 -179 -1 -31 -1
-31 -9 -7 -12 37 -12 -533 0 -712 119 -1795 944 -3426 2314 -4575 1056 -886
2339 -1402 3736 -1503 284 -21 805 -13 1080 16 163 17 378 46 396 54 15 6
3773 4306 3787 4333 2 4 -79 118 -576 807 -109 151 -202 276 -206 278 -5 2
-55 -57 -112 -130 -594 -763 -1119 -1379 -1381 -1618 -832 -759 -1915 -1105
-3015 -965 -1041 133 -1968 691 -2586 1556 -302 423 -520 936 -621 1464 -47
245 -60 398 -60 695 0 201 5 314 18 420 102 844 454 1585 1036 2184 605 622
1353 996 2230 1113 191 26 729 25 910 0 441 -63 777 -164 1157 -347 434 -209
775 -459 1138 -832 319 -327 674 -742 1126 -1313 187 -236 740 -970 905 -1200
141 -196 1085 -1492 1337 -1835 1208 -1640 2065 -2641 2757 -3215 730 -607
1615 -1058 2519 -1284 112 -29 214 -52 225 -53 13 -1 659 392 1601 974 l1580
976 145 17 c865 98 1789 421 2470 863 442 286 875 688 1199 1112 109 143 247
349 335 500 l67 115 153 94 153 94 12 51 c226 949 248 1901 65 2826 -168 850
-497 1644 -982 2367 -724 1080 -1754 1915 -2972 2410 -326 132 -776 267 -1130
337 -462 93 -715 117 -1235 121 -225 1 -435 1 -465 -1z"/>
<path d="M6501 20724 c0 -11 3 -14 6 -6 3 7 2 16 -1 19 -3 4 -6 -2 -5 -13z"/>
<path d="M6471 20624 c0 -11 3 -14 6 -6 3 7 2 16 -1 19 -3 4 -6 -2 -5 -13z"/>
<path d="M6461 20584 c0 -11 3 -14 6 -6 3 7 2 16 -1 19 -3 4 -6 -2 -5 -13z"/>
<path d="M6441 20514 c0 -11 3 -14 6 -6 3 7 2 16 -1 19 -3 4 -6 -2 -5 -13z"/>
<path d="M6431 20474 c0 -11 3 -14 6 -6 3 7 2 16 -1 19 -3 4 -6 -2 -5 -13z"/>
<path d="M6421 20434 c0 -11 3 -14 6 -6 3 7 2 16 -1 19 -3 4 -6 -2 -5 -13z"/>
<path d="M6411 20394 c0 -11 3 -14 6 -6 3 7 2 16 -1 19 -3 4 -6 -2 -5 -13z"/>
<path d="M6401 20354 c0 -11 3 -14 6 -6 3 7 2 16 -1 19 -3 4 -6 -2 -5 -13z"/>
<path d="M6392 20310 c0 -14 2 -19 5 -12 2 6 2 18 0 25 -3 6 -5 1 -5 -13z"/>
<path d="M6381 20264 c0 -11 3 -14 6 -6 3 7 2 16 -1 19 -3 4 -6 -2 -5 -13z"/>
<path d="M6372 20220 c0 -14 2 -19 5 -12 2 6 2 18 0 25 -3 6 -5 1 -5 -13z"/>
<path d="M6362 20170 c0 -14 2 -19 5 -12 2 6 2 18 0 25 -3 6 -5 1 -5 -13z"/>
<path d="M6352 20120 c0 -14 2 -19 5 -12 2 6 2 18 0 25 -3 6 -5 1 -5 -13z"/>
<path d="M6342 20070 c0 -14 2 -19 5 -12 2 6 2 18 0 25 -3 6 -5 1 -5 -13z"/>
<path d="M6332 20020 c0 -14 2 -19 5 -12 2 6 2 18 0 25 -3 6 -5 1 -5 -13z"/>
<path d="M6322 19960 c0 -14 2 -19 5 -12 2 6 2 18 0 25 -3 6 -5 1 -5 -13z"/>
<path d="M6312 19900 c0 -14 2 -19 5 -12 2 6 2 18 0 25 -3 6 -5 1 -5 -13z"/>
<path d="M6302 19840 c0 -14 2 -19 5 -12 2 6 2 18 0 25 -3 6 -5 1 -5 -13z"/>
<path d="M6292 19770 c0 -14 2 -19 5 -12 2 6 2 18 0 25 -3 6 -5 1 -5 -13z"/>
<path d="M6282 19700 c0 -14 2 -19 5 -12 2 6 2 18 0 25 -3 6 -5 1 -5 -13z"/>
<path d="M6272 19615 c0 -16 2 -22 5 -12 2 9 2 23 0 30 -3 6 -5 -1 -5 -18z"/>
<path d="M6262 19525 c0 -16 2 -22 5 -12 2 9 2 23 0 30 -3 6 -5 -1 -5 -18z"/>
<path d="M6252 19425 c0 -16 2 -22 5 -12 2 9 2 23 0 30 -3 6 -5 -1 -5 -18z"/>
<path d="M6242 19300 c0 -19 2 -27 5 -17 2 9 2 25 0 35 -3 9 -5 1 -5 -18z"/>
<path d="M32021 17134 c0 -11 3 -14 6 -6 3 7 2 16 -1 19 -3 4 -6 -2 -5 -13z"/>
<path d="M32011 17094 c0 -11 3 -14 6 -6 3 7 2 16 -1 19 -3 4 -6 -2 -5 -13z"/>
<path d="M31991 17024 c0 -11 3 -14 6 -6 3 7 2 16 -1 19 -3 4 -6 -2 -5 -13z"/>
<path d="M27880 12709 c-398 -139 -962 -264 -1460 -323 -63 -8 -99 -14 -79
-15 50 -1 336 35 514 65 193 33 470 95 649 145 160 45 476 148 476 155 0 7
-11 4 -100 -27z"/>
<path d="M26218 12363 c18 -2 45 -2 60 0 15 2 0 4 -33 4 -33 0 -45 -2 -27 -4z"/>
<path d="M26068 12353 c17 -2 47 -2 65 0 17 2 3 4 -33 4 -36 0 -50 -2 -32 -4z"/>
<path d="M25653 12343 c53 -2 141 -2 195 0 53 1 9 3 -98 3 -107 0 -151 -2 -97
-3z"/>
</g>
</svg>
