<svg width="76" height="67" viewBox="0 0 76 67" fill="none" xmlns="http://www.w3.org/2000/svg">
<path d="M0 0.00126859C25.3333 -0.000422865 50.6649 -0.000422865 75.9983 0.00126859C76 22.1898 75.9948 44.3784 76 66.5653C53.267 66.5721 30.5339 66.5687 7.80089 66.567C7.80089 46.5266 7.79915 26.4845 7.80089 6.44404C13.5285 6.80263 19.2857 7.23395 24.8846 8.52284C29.4034 9.54956 33.7986 11.1751 37.7608 13.5414C40.9873 11.6504 44.4903 10.2261 48.1081 9.21803C54.6915 7.3625 61.5653 6.82969 68.38 6.46772C68.3835 24.0572 68.3817 41.645 68.38 59.2345C50.8302 59.2193 33.2786 59.27 15.7288 59.2091C15.767 53.5106 15.7114 47.8121 15.7566 42.1152C16.8506 42.0425 17.9516 42.0019 19.037 41.8294C21.0198 41.4606 22.6356 40.1261 23.8706 38.6359C25.8986 36.1816 27.3023 33.3163 29.1703 30.7537C30.6835 28.5954 32.6385 26.6756 35.084 25.5322C35.0475 23.0779 35.0736 20.6235 35.0701 18.1692C28.5546 14.2146 20.8233 12.7786 13.2711 12.1916C13.2885 28.5396 13.2798 44.8875 13.2763 61.2338C32.3567 61.2473 51.4355 61.2355 70.5159 61.2406C70.5263 42.6091 70.502 23.9777 70.5281 5.34628C67.3138 5.31245 64.096 5.34121 60.8817 5.33106C42.417 5.34459 23.9523 5.30569 5.48932 5.35136C5.52933 24.5511 5.48758 43.7509 5.5102 62.9506C5.57455 64.3004 5.5415 65.6502 5.54324 67H0V0.00126859ZM59.1442 12.5198C52.6739 13.2674 46.1496 14.788 40.5455 18.132C40.549 20.0434 40.5472 21.953 40.5472 23.8627C43.3319 23.3925 46.3723 23.3519 48.936 24.6678C50.7971 25.5981 52.1573 27.4198 52.4147 29.4496C52.6008 31.0396 52.4564 32.7446 51.6233 34.1569C50.9693 35.2699 49.8266 36.026 48.6108 36.4624C46.2662 37.3132 43.7233 37.3115 41.3056 37.8494C40.7194 38.0185 39.9872 38.1741 39.6967 38.7577C39.4602 39.6288 39.3784 40.5845 39.6637 41.4539C39.8759 42.1237 40.5507 42.5127 41.2186 42.6582C42.4518 42.9356 43.7459 42.8172 44.9686 42.5449C46.8245 42.0611 48.3638 40.8568 49.7622 39.6254C52.1468 37.484 54.2271 35.0483 56.5891 32.8866C58.4658 31.1546 60.5339 29.5731 62.8994 28.521C62.9133 23.0745 62.8802 17.6263 62.915 12.1781C61.6523 12.217 60.3982 12.3878 59.1442 12.5198ZM37.4617 30.3664C35.8911 31.0413 34.7448 32.3538 33.7586 33.6765C32.0576 36.0125 30.7131 38.5733 29.0051 40.9042C27.1127 43.5513 24.5437 45.965 21.2494 46.7871C21.1972 49.1636 21.2129 51.5434 21.2424 53.9199C35.1275 53.8844 49.0143 53.9149 62.8994 53.9047C62.9063 47.4992 62.8907 41.0919 62.9081 34.6847C59.0381 37.4062 56.2499 41.2763 52.6269 44.2702C50.738 45.85 48.5621 47.193 46.1114 47.7444C44.2885 48.1368 42.384 48.2789 40.5368 47.9592C38.4792 47.6142 36.5016 46.5452 35.3362 44.8283C34.0108 42.9255 33.8004 40.4897 34.197 38.2739C34.4387 36.6586 35.1866 35.0432 36.5746 34.0639C38.3905 32.7648 40.7073 32.5044 42.8727 32.1948C44.092 31.9986 45.393 31.9597 46.4975 31.366C47.2645 30.9888 47.1741 29.7963 46.4557 29.4174C45.6626 28.9692 44.7182 28.8846 43.8189 28.8728C41.6169 28.8914 39.4584 29.4936 37.4617 30.3664Z" fill="#D32F2F"/>
</svg>
